<?xml version="1.0" standalone="no"?>
<!DOCTYPE svg PUBLIC "-//W3C//DTD SVG 20010904//EN"
 "http://www.w3.org/TR/2001/REC-SVG-20010904/DTD/svg10.dtd">
<svg version="1.0" xmlns="http://www.w3.org/2000/svg"
 width="401.000000pt" height="401.000000pt" viewBox="0 0 401.000000 401.000000"
 preserveAspectRatio="xMidYMid meet">

 <defs>
    <radialGradient id="RadialGradient">
      <stop offset="0%" stop-color="#1E40AF" />
      <stop offset="100%" stop-color="#1724c9" />
    </radialGradient>
  </defs>

<g transform="translate(0.000000,401.000000) scale(0.100000,-0.100000)"
fill="url(#RadialGradient)" stroke="none">
<path d="M1745 3966 c-379 -57 -695 -195 -996 -434 -362 -287 -614 -729 -700
-1225 -19 -108 -21 -149 -16 -347 5 -250 23 -358 93 -577 44 -138 152 -362
232 -479 327 -484 808 -784 1389 -868 505 -73 1084 85 1498 409 252 198 461
478 589 791 161 395 198 828 105 1225 l-21 91 -37 -7 c-20 -3 -83 -29 -141
-57 -91 -45 -117 -63 -190 -138 -68 -68 -95 -105 -137 -185 -93 -180 -143
-374 -143 -559 l0 -91 -173 -1 c-159 -1 -178 -3 -251 -28 -178 -60 -279 -129
-381 -258 -128 -162 -209 -390 -221 -623 -3 -49 -7 -105 -10 -123 l-5 -33
-191 183 c-106 101 -311 300 -458 443 -146 143 -300 291 -342 328 -93 84 -103
105 -94 197 11 106 61 336 90 413 104 277 292 457 547 527 81 22 227 40 329
40 l66 0 12 124 c20 217 51 337 127 491 130 263 343 399 686 436 l110 12 -68
45 c-188 123 -440 218 -708 267 -122 23 -468 29 -590 11z"/>
</g>
</svg>
